<?xml version="1.0" encoding="UTF-8"?>
<svg 
    width="128" 
    height="128" 
    viewBox="0 0 128 128" 
    fill="none" 
    xmlns="http://www.w3.org/2000/svg">
  <!-- Background / Document outline -->
  <rect width="128" height="128" rx="16" fill="#026AA7" />

  <!-- Paper Sheet shape -->
  <rect 
    x="24" 
    y="24" 
    width="80" 
    height="96" 
    rx="8" 
    fill="#FFFFFF" />

  <!-- Curly braces (representing code) -->
  <path 
    fill="#026AA7"
    d="M46,48 
       c0,-4  4,-8  8,-8 
       h0 v-4
       c0,-4 -4,-8 -8,-8 
       h-4 v6
       c0,4 -4,8 -8,8
       h0 v32
       h0 c4,0  8,4  8,8
       v6 h4 
       c4,0  8,-4  8,-8 
       v-4 h-0 
       c0,-4 -4,-8 -8,-8 
       v-16 
       z" />

  <path 
    fill="#026AA7"
    d="M82,80
       c0,4 -4,8 -8,8
       h-0 v4
       c0,4  4,8  8,8
       h4 v-6
       c0,-4 4,-8 8,-8
       h0 v-32
       h0 c-4,0 -8,-4 -8,-8
       v-6 h-4
       c-4,0 -8,4 -8,8
       v4 h0
       c0,4 4,8 8,8
       v16
       z" />

  <!-- Copy symbol (overlapping squares) -->
  <rect 
    x="72" 
    y="26" 
    width="24" 
    height="24" 
    rx="4" 
    fill="#AAAAAA" 
    stroke="#026AA7" 
    stroke-width="2" />
  <rect 
    x="62" 
    y="16" 
    width="24" 
    height="24" 
    rx="4" 
    fill="#E3E3E3" 
    stroke="#026AA7" 
    stroke-width="2" />

  <!-- Optional text or branding (commented out)
  <text 
    x="64" 
    y="118" 
    fill="#FFFFFF" 
    font-size="16" 
    font-family="Arial" 
    text-anchor="middle">
    COPY
  </text>
  -->

</svg>
