<?xml version="1.0" encoding="UTF-8"?>
<svg width="417.51" height="417.51" version="1.1" viewBox="0 0 110.47 110.47" xml:space="preserve" xmlns="http://www.w3.org/2000/svg" xmlns:xlink="http://www.w3.org/1999/xlink"><defs><linearGradient id="linearGradient15" x1="93.451" x2="5.4906" y1="101.37" y2="-2.3778" gradientUnits="userSpaceOnUse"><stop stop-color="#3178c6" offset="0"/><stop stop-color="#fcfcfd" offset="1"/></linearGradient></defs><g transform="translate(-25,-25)"><g stroke="#000"><path transform="matrix(1.0748 0 0 1.0757 -8.1535 -8.1795)" x="31.845613" y="31.845612" width="95.68721" height="95.687202" d="m43.202 31.846h74.941a9.3899 9.3899 45 0 1 9.3899 9.3899v74.941a11.356 11.356 135 0 1-11.356 11.356h-72.617a11.714 11.714 45 0 1-11.714-11.714v-72.617a11.356 11.356 135 0 1 11.356-11.356z" fill="url(#linearGradient15)" stroke-width="2"/><path transform="matrix(.28859 0 0 .29082 87.003 86.941)" x="31.845613" y="31.845612" width="95.68721" height="95.687202" d="m43.202 31.846h74.941a9.3899 9.3899 45 0 1 9.3899 9.3899v74.941a11.356 11.356 135 0 1-11.356 11.356h-72.617a11.714 11.714 45 0 1-11.714-11.714v-72.617a11.356 11.356 135 0 1 11.356-11.356z" fill="#85b0e0" stroke-width="8.2726"/><path transform="matrix(.28859 0 0 .29083 97.468 97.174)" x="31.845613" y="31.845612" width="95.68721" height="95.687202" d="m43.202 31.846h74.941a9.3899 9.3899 45 0 1 9.3899 9.3899v74.941a11.356 11.356 135 0 1-11.356 11.356h-72.617a11.714 11.714 45 0 1-11.714-11.714v-72.617a11.356 11.356 135 0 1 11.356-11.356z" fill="#3178c6" stroke-width="8.2726"/></g><g fill-opacity=".6"><rect x="45.493" y="60.306" width="28.941" height="4" ry="2"/><rect x="45.493" y="49.218" width="63.517" height="4" ry="2"/><rect x="45.493" y="38.13" width="68.471" height="4" ry="2"/><rect x="45.493" y="71.393" width="63.517" height="4" ry="2"/><rect x="45.493" y="82.481" width="63.517" height="4" ry="2"/><rect x="45.493" y="93.569" width="24.025" height="4" ry="2"/><rect x="45.493" y="104.66" width="24.025" height="4" ry="2"/><rect x="45.493" y="115.74" width="28" height="4" ry="2"/></g></g></svg>
